<?xml version="1.0" encoding="UTF-8"?>
<svg xmlns="http://www.w3.org/2000/svg" xmlns:xlink="http://www.w3.org/1999/xlink" width="240pt" height="480pt" viewBox="0 0 240 480" version="1.1">
<g id="surface1">
<path style=" stroke:none;fill-rule:nonzero;fill:rgb(0%,0%,0%);fill-opacity:1;" d="M 108.9375 0.226562 C 99.9375 0.976562 88.574219 3.488281 75.75 7.539062 C 73.164062 8.363281 68.738281 9.601562 65.925781 10.3125 C 59.738281 11.886719 54.898438 13.613281 50.625 15.75 C 33.449219 24.335938 24.039062 38.363281 21.75 58.648438 C 21.5625 60.488281 21.148438 62.773438 20.851562 63.710938 C 20.289062 65.511719 19.800781 78.113281 18.5625 122.4375 C 17.101562 175.273438 16.800781 195.1875 17.0625 215.625 C 17.210938 226.875 17.363281 236.476562 17.363281 236.960938 C 17.4375 237.710938 17.101562 238.011719 15.1875 238.835938 C 10.6875 240.789062 8.738281 242.585938 7.875 245.585938 C 7.460938 247.125 7.3125 254.476562 7.761719 254.363281 C 7.914062 254.324219 10.238281 253.539062 12.898438 252.601562 C 15.5625 251.664062 17.773438 250.875 17.8125 250.875 C 17.851562 250.875 18 254.136719 18.113281 258.074219 C 18.261719 262.050781 18.5625 268.425781 18.75 272.25 C 20.398438 302.585938 20.851562 318.074219 20.289062 324.148438 C 20.0625 326.625 19.761719 328.726562 19.574219 328.835938 C 19.238281 329.101562 18.226562 334.199219 17.550781 339.375 C 16.835938 344.738281 17.023438 407.136719 17.8125 416.4375 C 18.5625 425.550781 19.875 431.8125 22.539062 438.5625 C 27.75 451.949219 37.125 461.738281 51.148438 468.375 C 68.324219 476.550781 92.363281 480.113281 125.625 479.511719 C 161.210938 478.835938 183.675781 473.886719 199.875 463.085938 C 204.226562 460.199219 210.675781 453.898438 213.261719 450 C 221.886719 437.0625 223.539062 426.488281 223.5 383.8125 C 223.460938 349.050781 223.011719 339.789062 221.0625 330.75 C 219.9375 325.5 219.675781 318.300781 220.125 303.1875 C 220.726562 282.1875 221.925781 251.210938 222.148438 250.988281 C 222.300781 250.835938 225.9375 252 232.050781 254.175781 C 232.6875 254.398438 232.648438 249.113281 231.976562 246.335938 C 231.074219 242.398438 229.273438 240.523438 224.8125 238.6875 L 222.5625 237.789062 L 222.5625 232.238281 C 222.5625 229.199219 222.636719 219.675781 222.710938 211.125 C 222.789062 202.574219 222.636719 188.476562 222.414062 179.8125 C 222.1875 171.148438 221.738281 154.761719 221.4375 143.4375 C 221.136719 132.074219 220.761719 117 220.648438 109.875 C 220.351562 89.851562 219.449219 64.613281 219.039062 63.863281 C 218.851562 63.488281 218.511719 61.460938 218.289062 59.4375 C 217.3125 50.738281 215.664062 44.738281 212.398438 38.136719 C 206.4375 26.136719 196.125 17.476562 181.613281 12.375 C 178.460938 11.25 171.675781 9.414062 169.875 9.1875 C 169.351562 9.148438 166.425781 8.289062 163.386719 7.351562 C 153.1875 4.199219 144.523438 2.101562 136.800781 0.898438 C 133.050781 0.335938 113.4375 -0.113281 108.9375 0.226562 Z M 108.9375 0.226562 "/>
</g>
</svg>
